Coordinates
version=1
nRows=17
nColumns=36
inDegrees=yes

Units are S.I. units (second, meters, Newtons, ...)
If the header above contains a line with 'inDegrees', this indicates whether rotational values are in degrees (yes) or radians (no).

endheader
time	pelvis_tilt	pelvis_list	pelvis_rotation	pelvis_tx	pelvis_ty	pelvis_tz	hip_flexion_r	hip_adduction_r	hip_rotation_r	knee_angle_r	knee_angle_r_beta	ankle_angle_r	subtalar_angle_r	mtp_angle_r	hip_flexion_l	hip_adduction_l	hip_rotation_l	knee_angle_l	knee_angle_l_beta	ankle_angle_l	subtalar_angle_l	mtp_angle_l	lumbar_extension	lumbar_bending	lumbar_rotation	arm_flex_r	arm_add_r	arm_rot_r	elbow_flex_r	pro_sup_r	arm_flex_l	arm_add_l	arm_rot_l	elbow_flex_l	pro_sup_l
      0.00000000	     -0.13881432	      2.04025202	      0.10425142	     -0.12383994	      1.31506656	      0.11267660	      3.29404382	     -0.27569052	     -2.77935290	      5.62043519	      0.09809510	      6.70085573	     -2.35990116	     -5.91117918	      3.46147345	      0.12006763	     -3.75521010	      5.29670418	      0.09244493	      3.38222349	     -3.40381416	     -5.91117918	     -7.81513672	      1.18582585	     -3.83130533	      5.62131585	     -5.66411910	     11.58068564	     24.07564041	     78.65443262	      2.56743343	     -6.56503587	      8.49001213	     27.31974000	     74.44337290
      0.01666670	     -0.66524605	      2.57091068	     -0.00557911	     -0.12235090	      1.31443397	      0.11211538	      3.51331658	     -0.72476886	     -2.35200884	      4.55002276	      0.07941288	      8.38337430	     -1.09210466	     -6.24988364	      3.26548157	      0.81258907	     -5.12335473	      3.85376176	      0.06726083	      3.22812196	     -1.62122269	     -6.24988364	     -6.23431572	      0.71244242	     -3.78692833	      4.91659765	     -4.53940460	      5.75091080	     24.04735967	     77.05468690	      2.26035665	     -5.33255003	      3.50933589	     27.00618753	     73.16240911
      0.03333330	     -1.44090770	      2.98381221	     -0.22836299	     -0.12288715	      1.31444534	      0.11269980	      3.84632422	     -0.96485189	     -2.90049045	      3.62516277	      0.06327103	      7.97880943	     -1.67834507	     -6.36239715	      3.99275382	      1.22927884	     -6.37879737	      3.52255953	      0.06148026	      3.21257000	     -0.74200160	     -6.36239715	     -5.16989801	      0.01268969	     -3.50210785	      4.46698741	     -4.11167619	      4.24153449	     24.34762316	     76.61531262	      2.19502438	     -5.29333480	      2.89009882	     26.83810603	     72.89418815
      0.05000000	     -1.10848304	      3.21778024	     -0.34340619	     -0.12328109	      1.31664187	      0.11296250	      3.33032202	     -1.17798921	     -2.89150800	      3.20352472	      0.05591205	      7.99350031	     -1.53790353	     -6.46897477	      3.27109506	      1.56877585	     -6.66037931	      2.73329456	      0.04770499	      2.85678012	     -0.47890150	     -6.46897477	     -5.68103832	     -0.40034607	     -3.34894404	      4.37035638	     -3.85633065	      3.30333211	     24.79412976	     75.45422131	      2.25038658	     -5.43093721	      2.72705788	     27.05176222	     72.01134964
      0.06666670	     -1.01845617	      3.24975353	     -0.31820147	     -0.12342574	      1.31673015	      0.11284096	      3.03621662	     -1.17021529	     -2.79516876	      2.84178063	      0.04959843	      7.80343756	     -1.37049522	     -7.20292679	      3.02489020	      1.64449839	     -7.10255160	      2.35017651	      0.04101832	      3.21165699	      0.39949575	     -7.20292679	     -5.93524556	     -0.40198055	     -2.59032733	      3.81657743	     -3.51281408	     -0.81854729	     25.53467454	     84.30133335	      2.80699395	     -5.34011599	      2.87366006	     26.80589231	     78.57249777
      0.08333330	     -0.84944594	      3.31593963	     -0.37583134	     -0.12248842	      1.31689740	      0.11305254	      2.78604775	     -1.21915378	     -2.40338466	      2.90417764	      0.05068746	      7.55507402	     -1.80956403	     -7.34640628	      2.80379912	      1.72907594	     -7.10291972	      2.29528318	      0.04006025	      3.33502756	      0.74636851	     -7.34640628	     -6.11442810	     -0.48358229	     -2.43205058	      4.00676342	     -3.73823445	      2.01436877	     25.06050623	     78.89580574	      3.10468258	     -5.49862435	      4.90998629	     26.75386451	     74.09048889
      0.10000000	     -0.69498661	      3.36928475	     -0.26320115	     -0.12173435	      1.31578839	      0.11323746	      2.51917722	     -1.27265523	     -2.25759092	      2.81091753	      0.04905977	      7.46795113	     -1.97862435	     -7.44325974	      2.62904494	      1.78121264	     -6.74254633	      2.33743215	      0.04079589	      3.53969906	      0.83318520	     -7.44325974	     -6.36699711	     -0.53471273	     -2.39003730	      4.01321516	     -3.63247385	      1.26799021	     25.10943369	     84.29397082	      3.10357392	     -5.26059490	      3.07461782	     27.26843204	     80.47799969
      0.11666670	     -0.58202413	      3.42433307	     -0.28521725	     -0.12114659	      1.31806064	      0.11330502	      2.31954940	     -1.31907863	     -2.04374516	      2.74549418	      0.04791791	      7.28940128	     -1.95420990	     -7.46894570	      2.50764727	      1.80369460	     -6.84444424	      2.38913215	      0.04169822	      3.75529255	      1.35823188	     -7.46894570	     -6.38680871	     -0.62161250	     -2.32923962	      4.11740790	     -3.81582815	      3.79743255	     24.77916792	     79.01915350	      3.28712737	     -5.35672897	      4.85543152	     27.20918306	     75.71845945
      0.13333330	     -0.46007099	      3.45516903	     -0.20391506	     -0.12037502	      1.31747312	      0.11285653	      2.09956124	     -1.34864058	     -1.72623465	      2.67395063	      0.04666924	      7.08421739	     -2.26594785	     -7.48739407	      2.35656706	      1.84261181	     -6.50862596	      2.43250445	      0.04245521	      3.69839406	      1.05346715	     -7.48739407	     -6.49427331	     -0.67138989	     -2.44068776	      4.02951966	     -3.67061980	      2.61259690	     24.81028298	     85.20388797	      3.16761514	     -5.07655352	      2.68961986	     27.51270568	     82.50913480
      0.15000000	     -0.38538076	      3.52068962	     -0.19358174	     -0.12069804	      1.31749482	      0.11292723	      1.99321034	     -1.42035209	     -1.55439583	      2.59804695	      0.04534447	      6.92220797	     -2.34071114	     -7.49681645	      2.24649490	      1.89576075	     -6.40415495	      2.46375135	      0.04300057	      3.61252317	      0.94543894	     -7.49681645	     -6.53002148	     -0.77689333	     -2.42692178	      3.95557684	     -3.65921811	      2.76730553	     24.89589448	     85.71284707	      3.21887947	     -5.04229605	      2.65506544	     27.55652068	     83.21427208
      0.16666670	     -0.35964323	      3.54869343	     -0.11353969	     -0.11947216	      1.31635844	      0.11269508	      1.88860575	     -1.45737756	     -1.44978874	      2.44663319	      0.04270180	      6.72028891	     -2.56864907	     -7.49801194	      2.16827995	      1.92128409	     -6.17673621	      2.54334843	      0.04438980	      3.42010400	      0.66729781	     -7.49801194	     -6.41427227	     -0.81105579	     -2.56872412	      4.01096616	     -3.75022933	      4.33747060	     24.73115733	     81.60743013	      3.29543941	     -5.17072251	      4.09265584	     27.16154645	     79.17708887
      0.18333330	     -0.22067711	      3.57848473	     -0.14239500	     -0.11921441	      1.31759259	      0.11263912	      1.67348064	     -1.50439692	     -1.44382645	      2.31699924	      0.04043927	      6.58847986	     -2.57151982	     -7.49915560	      1.96486321	      1.94966345	     -6.23904950	      2.50049747	      0.04364191	      3.30730368	      0.74298705	     -7.49915560	     -6.56410569	     -0.87369654	     -2.47296922	      3.90607138	     -3.66834824	      2.96012103	     24.98901448	     87.21939171	      3.27021819	     -5.02709887	      2.70348843	     27.32403714	     84.82589963
      0.20000000	     -0.13139842	      3.59290072	     -0.10050630	     -0.11897215	      1.31722966	      0.11259089	      1.46769991	     -1.54115414	     -1.53801916	      2.22805003	      0.03888681	      6.39112119	     -2.71709349	     -7.49974417	      1.81533375	      1.96922483	     -6.12526598	      2.45099974	      0.04277802	      3.11082580	      0.63566289	     -7.49974417	     -6.58471552	     -0.90063677	     -2.53358066	      3.84180811	     -3.69857360	      3.00251733	     25.14957217	     87.63756199	      3.29680447	     -5.04398342	      2.81500280	     27.21334226	     85.31583663
      0.21666670	     -0.12451367	      3.63946068	     -0.08107192	     -0.11786341	      1.31639537	      0.11228849	      1.38501393	     -1.60519927	     -1.57386677	      2.08415354	      0.03637534	      6.14103768	     -2.90756695	     -7.49984829	      1.74201479	      2.02507539	     -6.29583301	      2.43335465	      0.04247005	      2.89909735	      0.70625112	     -7.49984829	     -6.46030878	     -0.98207781	     -2.53265484	      3.90902657	     -3.86078369	      4.68008362	     24.96714012	     83.74216658	      3.44614138	     -5.19632421	      4.47921795	     26.72027283	     81.48038234
      0.23333330	     -0.08082583	      3.65734856	     -0.14100607	     -0.11753910	      1.31605943	      0.11245032	      1.27593233	     -1.64112478	     -1.55980765	      1.98171662	      0.03458748	      6.06130403	     -2.97768959	     -7.49995204	      1.57318652	      2.06749126	     -5.99735280	      2.28209290	      0.03983003	      2.31515786	     -0.14691867	     -7.49995204	     -6.46277761	     -1.04385049	     -2.42303289	      4.00450065	     -4.19302678	      7.45533301	     24.91499711	     77.49315250	      3.64509784	     -5.45984596	      7.05223189	     26.42203688	     75.44754599
      0.25000000	     -0.02925952	      3.64735390	     -0.12221499	     -0.11681925	      1.31568935	      0.11224711	      1.15168423	     -1.61715000	     -1.53526423	      1.81962411	      0.03175843	      5.96301500	     -3.09483135	     -7.49998129	      1.45392350	      2.04621206	     -6.16992522	      2.24975953	      0.03926571	      2.51534124	      0.41142767	     -7.49998129	     -6.56849606	     -1.06322012	     -2.52369438	      3.84745908	     -3.75519861	      3.34082647	     25.29479720	     88.54756878	      3.41228247	     -5.09425972	      3.22002092	     26.68694299	     86.72494235
      0.26666670	     -0.03361667	      3.61565720	     -0.05739967	     -0.11672036	      1.31883438	      0.11224470	      1.01674392	     -1.58824481	     -1.83993944	      1.66135031	      0.02899603	      5.65581322	     -3.02619366	     -7.49999150	      1.41135984	      2.02384014	     -6.31422065	      2.09919641	      0.03663789	      2.24116262	      0.68220745	     -7.49999150	     -6.45486748	     -1.02571040	     -2.58951666	      4.01540774	     -4.01829239	      6.04727287	     25.09834618	     80.91605891	      3.61874780	     -5.29639182	      5.77425900	     26.05494952	     79.13507292
